<?xml version="1.0" encoding="utf-8"?>
<svg xmlns="http://www.w3.org/2000/svg">
  <defs>   
    <symbol xmlns="http://www.w3.org/2000/svg" id="logo" viewBox="0 0 111 17" fill="none">
        <path fill="currentColor" fill-rule="evenodd" d="M17.968 12.58h-5.3l-1.4 3.42h-2.3L15.408.84h.14L21.988 16h-2.68l-1.34-3.42Zm-.78-2-1.82-4.6-1.88 4.6h3.7ZM8.84 1.44v2.24H0V1.44h8.84ZM0 7.78V16h2.34v-6H8V7.78H0Zm28.773-4.36c.973 0 2.086.327 3.34.98l.88-1.78a7.841 7.841 0 0 0-2.04-.92c-.72-.227-1.56-.34-2.52-.34-1.32.053-2.387.447-3.2 1.18-.8.72-1.2 1.673-1.2 2.86 0 .813.193 1.493.58 2.04.4.533.873.953 1.42 1.26.546.293 1.233.593 2.06.9.8.307 1.42.646 1.86 1.02.453.373.68.84.68 1.4 0 .707-.267 1.233-.8 1.58-.534.333-1.154.5-1.86.5-.574 0-1.2-.12-1.88-.36a6.958 6.958 0 0 1-1.74-.94l-1.04 1.82c.666.48 1.426.86 2.28 1.14.853.266 1.72.4 2.6.4 1 0 1.866-.187 2.6-.56.733-.373 1.293-.873 1.68-1.5a3.92 3.92 0 0 0 .58-2.1c0-.854-.167-1.56-.5-2.12-.334-.56-.76-1-1.28-1.32-.507-.333-1.12-.627-1.84-.88-.947-.36-1.687-.72-2.22-1.08-.52-.373-.78-.833-.78-1.38 0-.56.206-1 .62-1.32.426-.32 1-.48 1.72-.48ZM47.953 16h-2.34V9.8h-7.16V16h-2.34V1.44h2.34v6.14h7.16V1.44h2.34V16Zm6.34 0V1.44h-2.34V16h2.34Zm3.108-7.26c0-1.333.333-2.567 1-3.7a7.597 7.597 0 0 1 2.7-2.74 7.201 7.201 0 0 1 3.74-1.02c1.333 0 2.566.34 3.7 1.02a7.708 7.708 0 0 1 2.74 2.74 7.13 7.13 0 0 1 1.02 3.7c0 1.346-.34 2.586-1.02 3.72a7.44 7.44 0 0 1-2.72 2.7 7.274 7.274 0 0 1-3.72 1 7.425 7.425 0 0 1-3.74-.98 7.486 7.486 0 0 1-2.7-2.7c-.667-1.133-1-2.38-1-3.74Zm2.4 0c0 .947.226 1.813.68 2.6a5.18 5.18 0 0 0 1.84 1.88c.786.466 1.646.7 2.58.7.92 0 1.76-.227 2.52-.68a5.075 5.075 0 0 0 1.8-1.88c.453-.8.68-1.673.68-2.62 0-.947-.227-1.82-.68-2.62a5.137 5.137 0 0 0-1.84-1.9 4.825 4.825 0 0 0-2.54-.7 4.86 4.86 0 0 0-2.56.7 5.189 5.189 0 0 0-1.82 1.9c-.44.8-.66 1.673-.66 2.62Zm17.91-2.4L87.5 16h9.94v-2.24h-7.6V9.8h6.52V7.56h-6.52V3.68h7.32V1.44H87.5v11.276C83.562 8.714 79.632 4.791 75.53.94h-.12V16h2.36l-.06-9.66Zm32.613-2.66V1.44h-9.66V16h9.94v-2.24h-7.6V9.8h6.52V7.56h-6.52V3.68h7.32Z" clip-rule="evenodd"/>
    </symbol>
  </defs>
</svg>